<?xml version="1.0" encoding="utf-8"?>
<!-- Generator: Adobe Illustrator 21.0.0, SVG Export Plug-In . SVG Version: 6.00 Build 0)  -->
<svg version="1.1" id="Layer_1" xmlns="http://www.w3.org/2000/svg" xmlns:xlink="http://www.w3.org/1999/xlink" x="0px" y="0px"
	 viewBox="0 0 285 220" style="enable-background:new 0 0 285 220;" xml:space="preserve">
<style type="text/css">
	.st0{opacity:0.6;fill:#686868;}
	.st1{fill:#FFFFFF;}
	.st2{fill-rule:evenodd;clip-rule:evenodd;fill:#FFFFFF;}
	.st3{fill-rule:evenodd;clip-rule:evenodd;fill:#E64C3D;}
	.st4{fill-rule:evenodd;clip-rule:evenodd;fill:#E1E1E1;}
</style>
<path id="Shape" class="st0" d="M213.4,180.8h62.7c0.6,0,1.1-0.5,1.1-1.1V30.4c0-0.6-0.5-1.1-1.1-1.1H192c-0.6,0-1.1,0.5-1.1,1.1
	V116h-6V13.3c0-6.9,5.6-12.6,12.6-12.6h2.9c0.2-0.4,0.6-0.7,1-0.7h10.9c0.5,0,0.8,0.3,1,0.7H271c6.9,0,12.6,5.6,12.6,12.6v16.2
	c0.4,0.2,0.7,0.6,0.7,1v4.1c0,0.5-0.3,0.8-0.7,1v4.8c0.4,0.2,0.7,0.6,0.7,1v4.1c0,0.5-0.3,0.8-0.7,1v149.6c0,6.9-5.6,12.6-12.6,12.6
	h-57.6L213.4,180.8L213.4,180.8z M234.6,8.9c-1,0-1.9,0.9-1.9,1.9s0.9,1.9,1.9,1.9c1.1,0,1.9-0.9,1.9-1.9
	C236.5,9.7,235.6,8.9,234.6,8.9z M241.2,17.8H227c-0.6,0-1.1,0.5-1.1,1.1s0.5,1.1,1.1,1.1h14.3c0.6,0,1.1-0.5,1.1-1.1
	S241.9,17.8,241.2,17.8z"/>
<path id="Shape_1_" class="st1" d="M0.8,191.5v-57.7c0-6.9,5.6-12.5,12.6-12.5h16.2c0.2-0.4,0.6-0.7,1-0.7h4.2c0.5,0,0.8,0.3,1,0.7
	h4.8c0.2-0.4,0.6-0.7,1-0.7h4.1c0.5,0,0.9,0.3,1,0.7h149.6c6.9,0,12.6,5.6,12.6,12.5v73.6c0,6.9-5.6,12.6-12.6,12.6h-183
	c-6.9,0-12.6-5.6-12.6-12.6v-2.9c-0.4-0.2-0.7-0.6-0.7-1v-10.9C0.2,192.1,0.4,191.7,0.8,191.5z M29.4,212.8c0,0.6,0.5,1.1,1.1,1.1
	h149.2c0.6,0,1.1-0.5,1.1-1.1v-84.1c0-0.6-0.5-1.1-1.1-1.1H30.5c-0.6,0-1.1,0.5-1.1,1.1L29.4,212.8L29.4,212.8z M17.8,177.8
	c0,0.6,0.5,1.1,1.1,1.1c0.6,0,1.1-0.5,1.1-1.1v-14.3c0-0.6-0.5-1.1-1.1-1.1c-0.6,0-1.1,0.5-1.1,1.1V177.8z M10.8,172.1
	c1,0,1.9-0.8,1.9-1.9c0-1.1-0.9-1.9-1.9-1.9c-1.1,0-1.9,0.9-1.9,1.9C8.9,171.3,9.8,172.1,10.8,172.1z"/>
<path id="Path" class="st1" d="M85.3,95.1l5.4,5.8c3-30.4,20.8-44.9,35.4-51.7c16.3-7.6,31.9-7.4,32.5-7.4l1.7,0v4.6l-1.7,0
	c-0.1,0-15.3-0.1-30.7,7.1c-19.2,9-30.2,24.9-32.6,47.3l5.5-5.1l-0.3,6.6l-8,7.4l-7.4-8L85.3,95.1z"/>
<path class="st2" d="M144.7,140.5H66.4c-2.4,0-4.4,2-4.4,4.4v50.7c0,2.4,2,4.4,4.4,4.4h78.2c2.4,0,4.4-2,4.4-4.4V145
	C149.1,142.5,147.1,140.5,144.7,140.5z"/>
<circle class="st3" cx="136.4" cy="187.8" r="5.9"/>
<path d="M70.1,188.9l0.8,1.6l0.2,0.4h0l0.2-0.4l0.8-1.6h0.6l-1.3,2.5v1.3h-0.5v-1.3l-1.3-2.5H70.1z"/>
<path d="M76.5,190.7c0,0.3,0,0.6-0.1,0.9s-0.1,0.4-0.3,0.6c-0.1,0.2-0.3,0.3-0.5,0.3s-0.4,0.1-0.7,0.1c-0.3,0-0.5,0-0.7-0.1
	s-0.4-0.2-0.5-0.3s-0.2-0.4-0.3-0.6c-0.1-0.2-0.1-0.5-0.1-0.9s0-0.6,0.1-0.9s0.1-0.4,0.3-0.6c0.1-0.2,0.3-0.3,0.5-0.3
	c0.2-0.1,0.4-0.1,0.7-0.1s0.5,0,0.7,0.1s0.4,0.2,0.5,0.3c0.1,0.2,0.2,0.4,0.3,0.6S76.5,190.4,76.5,190.7z M76,190.7
	c0-0.3,0-0.5-0.1-0.7c0-0.2-0.1-0.3-0.2-0.4c-0.1-0.1-0.2-0.2-0.3-0.2c-0.1,0-0.3-0.1-0.5-0.1s-0.3,0-0.5,0.1
	c-0.1,0-0.2,0.1-0.3,0.2c-0.1,0.1-0.1,0.3-0.2,0.4c0,0.2-0.1,0.4-0.1,0.7s0,0.5,0.1,0.7c0,0.2,0.1,0.3,0.2,0.4
	c0.1,0.1,0.2,0.2,0.3,0.2c0.1,0,0.3,0.1,0.5,0.1s0.3,0,0.5-0.1c0.1,0,0.2-0.1,0.3-0.2c0.1-0.1,0.1-0.3,0.2-0.4
	C75.9,191.3,76,191,76,190.7z"/>
<path d="M80.6,191.3c0,0.5-0.1,0.9-0.4,1.1c-0.2,0.2-0.6,0.3-1.1,0.3c-0.5,0-0.8-0.1-1.1-0.3c-0.2-0.2-0.4-0.6-0.4-1.1v-2.4h0.5v2.4
	c0,0.3,0.1,0.6,0.2,0.7s0.4,0.2,0.7,0.2c0.3,0,0.5-0.1,0.7-0.2c0.1-0.2,0.2-0.4,0.2-0.7v-2.4h0.5V191.3z"/>
<path d="M84.4,189.9c0,0.3-0.1,0.5-0.2,0.7s-0.3,0.3-0.5,0.3l1,1.7h-0.6l-0.8-1.6h-0.8v1.6H82v-3.8h1.3c0.4,0,0.7,0.1,0.9,0.3
	S84.4,189.6,84.4,189.9z M83.9,190c0-0.2-0.1-0.4-0.2-0.5c-0.1-0.1-0.3-0.1-0.5-0.1h-0.8v1.3h0.7c0.2,0,0.4-0.1,0.5-0.2
	C83.9,190.4,83.9,190.2,83.9,190z"/>
<path d="M91.2,192.6l-1.8-2.6l-0.2-0.3l0,0l0,0.4v2.5h-0.5v-3.8h0.5l1.9,2.8l0,0l0-0.4v-2.4h0.5v3.8H91.2z"/>
<path d="M95.2,191.7h-1.6l-0.3,0.9h-0.6l1.4-3.8h0.6l1.4,3.8h-0.6L95.2,191.7z M94.2,189.6l-0.6,1.6H95l-0.5-1.6l-0.1-0.4h0
	L94.2,189.6z"/>
<path d="M97.7,188.9l1.1,2.7l0.1,0.4h0l0.1-0.4l1.1-2.7h0.6v3.8h-0.5v-2.5l0-0.4l0,0l-0.1,0.4l-1,2.5h-0.4l-1-2.5l-0.1-0.4l0,0
	l0,0.4v2.5h-0.5v-3.8H97.7z"/>
<path d="M104.6,192.2l0,0.5h-2.4v-3.8h2.3l0,0.5h-1.8v1.1h1.5v0.4h-1.5v1.3H104.6z"/>
<path d="M98.5,182.9V180h0.8l0.7,2l0.7-2h0.7v2.9h-0.6v-2.2l-0.7,2h-0.5l-0.7-2v2.2H98.5z"/>
<path d="M102.2,182.9V180h0.8l0.7,2l0.7-2h0.7v2.9h-0.6v-2.2l-0.7,2h-0.5l-0.7-2v2.2H102.2z"/>
<path d="M107.2,183.5l1-3.5h0.4l-1,3.5H107.2z"/>
<path d="M111.4,182.9v-1.2l-1-1.7h0.7l0.7,1.2l0.7-1.2h0.5l-1,1.7v1.2H111.4z"/>
<path d="M114.1,182.9v-1.2l-1-1.7h0.7l0.7,1.2l0.7-1.2h0.5l-1,1.7v1.2H114.1z"/>
<path d="M69.6,175.7h0.8V173l0-0.5l0,0l-0.4,0.3l-0.5,0.3l-0.1-0.5l1.2-0.8h0.3v3.9h0.8v0.4h-2.1V175.7z"/>
<path d="M75.6,173c0,0.2-0.1,0.4-0.2,0.7s-0.2,0.4-0.4,0.6s-0.4,0.4-0.6,0.7c-0.2,0.2-0.5,0.5-0.8,0.7v0h2l0,0.5h-2.8v-0.4
	c0.3-0.3,0.5-0.5,0.8-0.8c0.3-0.2,0.5-0.5,0.7-0.7c0.2-0.2,0.4-0.4,0.5-0.7c0.1-0.2,0.2-0.4,0.2-0.6c0-0.1,0-0.2-0.1-0.3
	c0-0.1-0.1-0.2-0.2-0.2c-0.1-0.1-0.2-0.1-0.3-0.2c-0.1,0-0.3-0.1-0.4-0.1c-0.2,0-0.4,0-0.6,0.1s-0.4,0.2-0.5,0.3l-0.2-0.5
	c0.2-0.1,0.4-0.2,0.6-0.3s0.5-0.1,0.8-0.1c0.5,0,0.8,0.1,1.1,0.3C75.5,172.3,75.6,172.6,75.6,173z"/>
<path d="M79.8,174.9c0,0.2,0,0.4-0.1,0.6c-0.1,0.2-0.2,0.3-0.3,0.4c-0.1,0.1-0.3,0.2-0.5,0.3c-0.2,0.1-0.4,0.1-0.7,0.1
	c-0.3,0-0.5,0-0.8-0.1c-0.2-0.1-0.4-0.2-0.6-0.2l0.1-0.5c0.2,0.1,0.3,0.2,0.5,0.2c0.2,0.1,0.4,0.1,0.6,0.1c0.4,0,0.6-0.1,0.8-0.2
	c0.2-0.2,0.3-0.4,0.3-0.6c0-0.1,0-0.2-0.1-0.3s-0.1-0.2-0.2-0.2c-0.1-0.1-0.3-0.1-0.4-0.1c-0.2,0-0.4,0-0.6,0v-0.4
	c0.2,0,0.4,0,0.6,0c0.2,0,0.3-0.1,0.4-0.1c0.1-0.1,0.2-0.1,0.2-0.2c0-0.1,0.1-0.2,0.1-0.3c0-0.2-0.1-0.4-0.2-0.5
	c-0.2-0.1-0.4-0.2-0.7-0.2c-0.2,0-0.5,0-0.6,0.1c-0.2,0.1-0.4,0.2-0.5,0.3l-0.2-0.5c0.2-0.1,0.3-0.2,0.6-0.3
	c0.2-0.1,0.5-0.1,0.8-0.1c0.4,0,0.8,0.1,1,0.3s0.4,0.5,0.4,0.8c0,0.3-0.1,0.5-0.2,0.6s-0.3,0.3-0.5,0.3v0c0.3,0.1,0.5,0.2,0.6,0.3
	C79.7,174.4,79.8,174.6,79.8,174.9z"/>
<path d="M83.4,175.2v0.9h-0.5v-0.9h-2l0-0.4l1.9-3h0.7v2.9h0.5l0,0.5H83.4z M82.9,172.8l0-0.5l0,0l-0.2,0.4l-1,1.6l-0.2,0.4l0,0h1.4
	L82.9,172.8z"/>
<path d="M91,174.7c0,0.5-0.1,0.9-0.4,1.1c-0.2,0.3-0.6,0.4-1.1,0.4c-0.3,0-0.5,0-0.7-0.1c-0.2-0.1-0.4-0.1-0.6-0.3l0.1-0.5
	c0.2,0.1,0.3,0.2,0.5,0.2c0.2,0.1,0.4,0.1,0.6,0.1c0.3,0,0.6-0.1,0.8-0.2c0.2-0.2,0.2-0.4,0.2-0.7c0-0.3-0.1-0.5-0.2-0.6
	c-0.2-0.1-0.4-0.2-0.7-0.2c-0.2,0-0.4,0-0.6,0.1s-0.3,0.1-0.5,0.2l-0.2-0.2l0.2-2.1h2.4l0,0.5h-1.9l-0.1,1.2c0.1,0,0.3-0.1,0.4-0.1
	c0.1,0,0.3,0,0.4,0C90.5,173.4,91,173.8,91,174.7z"/>
<path d="M95.1,174.7c0,0.5-0.1,0.9-0.4,1.2c-0.2,0.3-0.6,0.4-1.1,0.4c-0.3,0-0.5,0-0.7-0.1c-0.2-0.1-0.4-0.2-0.5-0.4
	c-0.1-0.2-0.2-0.4-0.3-0.6c-0.1-0.3-0.1-0.6-0.1-1c0-0.8,0.2-1.4,0.5-1.8c0.3-0.4,0.8-0.6,1.4-0.6c0.2,0,0.3,0,0.5,0
	c0.2,0,0.3,0.1,0.5,0.1l-0.1,0.5c-0.1-0.1-0.3-0.1-0.4-0.1c-0.1,0-0.3,0-0.4,0c-0.4,0-0.7,0.1-1,0.4c-0.2,0.2-0.3,0.6-0.4,1.1l0,0
	c0.1-0.1,0.3-0.2,0.5-0.3s0.4-0.1,0.6-0.1c0.5,0,0.8,0.1,1,0.3S95.1,174.2,95.1,174.7z M94.5,174.7c0-0.3-0.1-0.5-0.2-0.6
	c-0.1-0.1-0.4-0.2-0.7-0.2c-0.1,0-0.2,0-0.3,0s-0.2,0-0.3,0.1s-0.2,0.1-0.2,0.1c-0.1,0.1-0.1,0.1-0.2,0.2c0,0.3,0,0.5,0.1,0.7
	s0.1,0.3,0.2,0.4c0.1,0.1,0.2,0.2,0.3,0.2c0.1,0,0.3,0.1,0.4,0.1C94.2,175.7,94.5,175.4,94.5,174.7z"/>
<path d="M99,172.3l-1.8,3.8h-0.7l1.9-3.8H96l0-0.6h3V172.3z"/>
<path d="M99.9,175c0-0.2,0.1-0.5,0.2-0.6s0.3-0.3,0.6-0.4v0c-0.2-0.1-0.3-0.2-0.4-0.4c-0.1-0.2-0.2-0.4-0.2-0.6c0-0.2,0-0.3,0.1-0.5
	c0.1-0.1,0.1-0.3,0.2-0.3s0.3-0.2,0.4-0.2c0.2,0,0.4-0.1,0.6-0.1c0.5,0,0.8,0.1,1,0.3c0.2,0.2,0.3,0.5,0.3,0.8
	c0,0.2-0.1,0.4-0.2,0.6c-0.1,0.2-0.3,0.3-0.5,0.4v0c0.1,0,0.2,0.1,0.3,0.2c0.1,0.1,0.2,0.1,0.3,0.2c0.1,0.1,0.1,0.2,0.2,0.3
	s0.1,0.2,0.1,0.4c0,0.4-0.1,0.7-0.4,0.9c-0.3,0.2-0.6,0.3-1.1,0.3c-0.5,0-0.9-0.1-1.2-0.3S99.9,175.4,99.9,175z M102.4,175
	c0-0.1,0-0.3-0.1-0.4s-0.2-0.2-0.3-0.2c-0.1-0.1-0.2-0.1-0.4-0.2c-0.1,0-0.3-0.1-0.4-0.1c-0.1,0-0.2,0.1-0.3,0.2
	c-0.1,0.1-0.2,0.1-0.2,0.2c-0.1,0.1-0.1,0.2-0.2,0.2c0,0.1-0.1,0.2-0.1,0.3c0,0.3,0.1,0.5,0.2,0.6c0.2,0.1,0.4,0.2,0.8,0.2
	c0.3,0,0.5-0.1,0.7-0.2C102.3,175.5,102.4,175.3,102.4,175z M100.6,172.9c0,0.1,0,0.2,0.1,0.3s0.1,0.2,0.2,0.2
	c0.1,0.1,0.2,0.1,0.3,0.2c0.1,0,0.3,0.1,0.4,0.1c0.2-0.1,0.4-0.2,0.5-0.3c0.1-0.1,0.2-0.3,0.2-0.5c0-0.2-0.1-0.4-0.2-0.5
	c-0.1-0.1-0.4-0.2-0.6-0.2c-0.3,0-0.5,0.1-0.6,0.2C100.7,172.5,100.6,172.7,100.6,172.9z"/>
<path d="M107.8,175.7h0.8V173l0-0.5l0,0l-0.4,0.3l-0.5,0.3l-0.1-0.5l1.2-0.8h0.3v3.9h0.8v0.4h-2.1V175.7z"/>
<path d="M113.9,173c0,0.2-0.1,0.4-0.2,0.7s-0.2,0.4-0.4,0.6s-0.4,0.4-0.6,0.7c-0.2,0.2-0.5,0.5-0.8,0.7v0h2l0,0.5h-2.8v-0.4
	c0.3-0.3,0.5-0.5,0.8-0.8c0.3-0.2,0.5-0.5,0.7-0.7c0.2-0.2,0.4-0.4,0.5-0.7c0.1-0.2,0.2-0.4,0.2-0.6c0-0.1,0-0.2-0.1-0.3
	c0-0.1-0.1-0.2-0.2-0.2c-0.1-0.1-0.2-0.1-0.3-0.2c-0.1,0-0.3-0.1-0.4-0.1c-0.2,0-0.4,0-0.6,0.1s-0.4,0.2-0.5,0.3l-0.2-0.5
	c0.2-0.1,0.4-0.2,0.6-0.3s0.5-0.1,0.8-0.1c0.5,0,0.8,0.1,1.1,0.3C113.8,172.3,113.9,172.6,113.9,173z"/>
<path d="M118,174.9c0,0.2,0,0.4-0.1,0.6c-0.1,0.2-0.2,0.3-0.3,0.4c-0.1,0.1-0.3,0.2-0.5,0.3c-0.2,0.1-0.4,0.1-0.7,0.1
	c-0.3,0-0.5,0-0.8-0.1c-0.2-0.1-0.4-0.2-0.6-0.2l0.1-0.5c0.2,0.1,0.3,0.2,0.5,0.2c0.2,0.1,0.4,0.1,0.6,0.1c0.4,0,0.6-0.1,0.8-0.2
	c0.2-0.2,0.3-0.4,0.3-0.6c0-0.1,0-0.2-0.1-0.3s-0.1-0.2-0.2-0.2c-0.1-0.1-0.3-0.1-0.4-0.1c-0.2,0-0.4,0-0.6,0v-0.4
	c0.2,0,0.4,0,0.6,0c0.2,0,0.3-0.1,0.4-0.1c0.1-0.1,0.2-0.1,0.2-0.2c0-0.1,0.1-0.2,0.1-0.3c0-0.2-0.1-0.4-0.2-0.5
	c-0.2-0.1-0.4-0.2-0.7-0.2c-0.2,0-0.5,0-0.6,0.1c-0.2,0.1-0.4,0.2-0.5,0.3l-0.2-0.5c0.2-0.1,0.3-0.2,0.6-0.3
	c0.2-0.1,0.5-0.1,0.8-0.1c0.4,0,0.8,0.1,1,0.3s0.4,0.5,0.4,0.8c0,0.3-0.1,0.5-0.2,0.6s-0.3,0.3-0.5,0.3v0c0.3,0.1,0.5,0.2,0.6,0.3
	C118,174.4,118,174.6,118,174.9z"/>
<path d="M121.6,175.2v0.9h-0.5v-0.9h-2l0-0.4l1.9-3h0.7v2.9h0.5l0,0.5H121.6z M121.2,172.8l0-0.5l0,0l-0.2,0.4l-1,1.6l-0.2,0.4l0,0
	h1.4L121.2,172.8z"/>
<path d="M129.3,174.7c0,0.5-0.1,0.9-0.4,1.1c-0.2,0.3-0.6,0.4-1.1,0.4c-0.3,0-0.5,0-0.7-0.1c-0.2-0.1-0.4-0.1-0.6-0.3l0.1-0.5
	c0.2,0.1,0.3,0.2,0.5,0.2c0.2,0.1,0.4,0.1,0.6,0.1c0.3,0,0.6-0.1,0.8-0.2c0.2-0.2,0.2-0.4,0.2-0.7c0-0.3-0.1-0.5-0.2-0.6
	c-0.2-0.1-0.4-0.2-0.7-0.2c-0.2,0-0.4,0-0.6,0.1s-0.3,0.1-0.5,0.2l-0.2-0.2l0.2-2.1h2.4l0,0.5h-1.9l-0.1,1.2c0.1,0,0.3-0.1,0.4-0.1
	c0.1,0,0.3,0,0.4,0C128.8,173.4,129.3,173.8,129.3,174.7z"/>
<path d="M133.4,174.7c0,0.5-0.1,0.9-0.4,1.2c-0.2,0.3-0.6,0.4-1.1,0.4c-0.3,0-0.5,0-0.7-0.1c-0.2-0.1-0.4-0.2-0.5-0.4
	c-0.1-0.2-0.2-0.4-0.3-0.6s-0.1-0.6-0.1-1c0-0.8,0.2-1.4,0.5-1.8s0.8-0.6,1.4-0.6c0.2,0,0.3,0,0.5,0c0.2,0,0.3,0.1,0.5,0.1l-0.1,0.5
	c-0.1-0.1-0.3-0.1-0.4-0.1c-0.1,0-0.3,0-0.4,0c-0.4,0-0.7,0.1-1,0.4c-0.2,0.2-0.3,0.6-0.4,1.1l0,0c0.1-0.1,0.3-0.2,0.5-0.3
	s0.4-0.1,0.6-0.1c0.5,0,0.8,0.1,1,0.3S133.4,174.2,133.4,174.7z M132.8,174.7c0-0.3-0.1-0.5-0.2-0.6c-0.1-0.1-0.4-0.2-0.7-0.2
	c-0.1,0-0.2,0-0.3,0s-0.2,0-0.3,0.1c-0.1,0-0.2,0.1-0.2,0.1c-0.1,0.1-0.1,0.1-0.2,0.2c0,0.3,0,0.5,0.1,0.7c0,0.2,0.1,0.3,0.2,0.4
	c0.1,0.1,0.2,0.2,0.3,0.2c0.1,0,0.3,0.1,0.4,0.1C132.5,175.7,132.8,175.4,132.8,174.7z"/>
<path d="M137.3,172.3l-1.8,3.8h-0.7l1.9-3.8h-2.5l0-0.6h3V172.3z"/>
<path d="M138.2,175c0-0.2,0.1-0.5,0.2-0.6c0.1-0.2,0.3-0.3,0.6-0.4v0c-0.2-0.1-0.3-0.2-0.4-0.4c-0.1-0.2-0.2-0.4-0.2-0.6
	c0-0.2,0-0.3,0.1-0.5c0.1-0.1,0.1-0.3,0.2-0.3s0.3-0.2,0.4-0.2c0.2,0,0.4-0.1,0.6-0.1c0.5,0,0.8,0.1,1,0.3c0.2,0.2,0.3,0.5,0.3,0.8
	c0,0.2-0.1,0.4-0.2,0.6c-0.1,0.2-0.3,0.3-0.5,0.4v0c0.1,0,0.2,0.1,0.3,0.2c0.1,0.1,0.2,0.1,0.3,0.2c0.1,0.1,0.1,0.2,0.2,0.3
	c0,0.1,0.1,0.2,0.1,0.4c0,0.4-0.1,0.7-0.4,0.9c-0.3,0.2-0.6,0.3-1.1,0.3c-0.5,0-0.9-0.1-1.2-0.3C138.3,175.7,138.2,175.4,138.2,175z
	 M140.7,175c0-0.1,0-0.3-0.1-0.4c-0.1-0.1-0.2-0.2-0.3-0.2c-0.1-0.1-0.2-0.1-0.4-0.2c-0.1,0-0.3-0.1-0.4-0.1c-0.1,0-0.2,0.1-0.3,0.2
	c-0.1,0.1-0.2,0.1-0.2,0.2c-0.1,0.1-0.1,0.2-0.2,0.2s-0.1,0.2-0.1,0.3c0,0.3,0.1,0.5,0.2,0.6c0.2,0.1,0.4,0.2,0.8,0.2
	c0.3,0,0.5-0.1,0.7-0.2S140.7,175.3,140.7,175z M138.9,172.9c0,0.1,0,0.2,0.1,0.3s0.1,0.2,0.2,0.2c0.1,0.1,0.2,0.1,0.3,0.2
	c0.1,0,0.3,0.1,0.4,0.1c0.2-0.1,0.4-0.2,0.5-0.3c0.1-0.1,0.2-0.3,0.2-0.5c0-0.2-0.1-0.4-0.2-0.5c-0.1-0.1-0.4-0.2-0.6-0.2
	c-0.3,0-0.5,0.1-0.6,0.2C138.9,172.5,138.9,172.7,138.9,172.9z"/>
<path class="st4" d="M84.4,164.8h-13c-0.8,0-1.5-0.7-1.5-1.5v-7.9c0-0.8,0.7-1.5,1.5-1.5h13c0.8,0,1.5,0.7,1.5,1.5v7.9
	C85.9,164.1,85.2,164.8,84.4,164.8z M75.2,158c0-3.2,0-3.2-3.3-3.1c-0.8,0-1.1,0.2-1.1,1.1c0,1.6,0,3.1,0,4.7c0,3.3,0,3.2,3.3,3.2
	c0.9,0,1.1-0.3,1.1-1.1c-0.1-1.1,0-2.2,0-3.3V158z M76.2,158.8c1.9,0,3.8,0,5.7,0c3.1,0,3.1,0,2.9-3.1c0-0.7-0.3-0.9-1-0.9
	c-2.6,0-5.2,0-7.7,0C75.9,156.2,75.8,157.5,76.2,158.8z M76.2,163.8c2.5,0,5,0,7.5,0c0.5,0,1.2,0.2,1.1-0.6c0-1.1,0.3-2.3-0.2-3.3
	c0-0.1-0.4,0-0.6,0c-2.6,0-5.2,0-7.8,0C75.9,161.2,75.8,162.5,76.2,163.8z"/>
</svg>
